<svg width="1158" height="982" viewBox="0 0 1158 982" fill="none" xmlns="http://www.w3.org/2000/svg">
<path d="M504 320C928 62 950 72 1030.67 -51.0841L1378 -108L1218.18 251.708L1086 374L950 534L896 668L788 892L740 958L674 1012L584 1080L490 1132H264L124 1080L34 1012L0 942L16 870L34 822L56 770L84.0004 724L124 668L180 604L246 544L504 320Z" fill="#FF7200" fill-opacity="0.3"/>
<path d="M718.5 304.5C835 244.236 947.6 85.8905 1200 -105.541L1239.5 -162L1271 -58.6036L1191.5 140L949.5 464.287L783.5 780.384L718.5 871.5L677 914L628 947L568.5 964H508.5H445.5L390 947L330 921.5L270 885.5L244.349 842.5L217 780.384L244.349 691.5L275.849 617L282.5 605.5L330 541.5L368.5 510L508.5 391.5L718.5 304.5Z" fill="#FF7200" fill-opacity="0.4"/>
</svg>
