<svg width="50" height="55" viewBox="0 0 50 55" fill="none" xmlns="http://www.w3.org/2000/svg">
<path d="M32.2917 32.0833H30.6458L30.0625 31.4646C32.1042 28.8521 33.3333 25.4604 33.3333 21.7708C33.3333 13.5438 27.2708 6.875 19.7917 6.875C12.3125 6.875 6.25 13.5438 6.25 21.7708C6.25 29.9979 12.3125 36.6667 19.7917 36.6667C23.1458 36.6667 26.2292 35.3146 28.6042 33.0688L29.1667 33.7104V35.5208L39.5833 46.9563L42.6875 43.5417L32.2917 32.0833V32.0833ZM19.7917 32.0833C14.6042 32.0833 10.4167 27.4771 10.4167 21.7708C10.4167 16.0646 14.6042 11.4583 19.7917 11.4583C24.9792 11.4583 29.1667 16.0646 29.1667 21.7708C29.1667 27.4771 24.9792 32.0833 19.7917 32.0833Z" fill="black"/>
</svg>
