<svg width="60" height="50" viewBox="0 0 60 50" fill="none" xmlns="http://www.w3.org/2000/svg">
<path d="M38.75 29.1667H36.775L36.075 28.6042C38.525 26.2292 40 23.1458 40 19.7917C40 12.3125 32.725 6.25 23.75 6.25C14.775 6.25 7.5 12.3125 7.5 19.7917C7.5 27.2708 14.775 33.3333 23.75 33.3333C27.775 33.3333 31.475 32.1042 34.325 30.0625L35 30.6458V32.2917L47.5 42.6875L51.225 39.5833L38.75 29.1667V29.1667ZM23.75 29.1667C17.525 29.1667 12.5 24.9792 12.5 19.7917C12.5 14.6042 17.525 10.4167 23.75 10.4167C29.975 10.4167 35 14.6042 35 19.7917C35 24.9792 29.975 29.1667 23.75 29.1667Z" fill="black"/>
</svg>
