<svg width="40" height="30" viewBox="0 0 40 30" fill="none" xmlns="http://www.w3.org/2000/svg">
<path d="M25.8333 17.5H24.5167L24.05 17.1625C25.6833 15.7375 26.6667 13.8875 26.6667 11.875C26.6667 7.3875 21.8167 3.75 15.8333 3.75C9.85 3.75 5 7.3875 5 11.875C5 16.3625 9.85 20 15.8333 20C18.5167 20 20.9833 19.2625 22.8833 18.0375L23.3333 18.3875V19.375L31.6667 25.6125L34.15 23.75L25.8333 17.5V17.5ZM15.8333 17.5C11.6833 17.5 8.33333 14.9875 8.33333 11.875C8.33333 8.7625 11.6833 6.25 15.8333 6.25C19.9833 6.25 23.3333 8.7625 23.3333 11.875C23.3333 14.9875 19.9833 17.5 15.8333 17.5Z" fill="black"/>
</svg>
